<?xml version="1.0" encoding="iso-8859-1"?>
<!-- Generator: Adobe Illustrator 19.0.0, SVG Export Plug-In . SVG Version: 6.00 Build 0)  -->
<svg version="1.1" id="Layer_1" xmlns="http://www.w3.org/2000/svg" xmlns:xlink="http://www.w3.org/1999/xlink" x="0px" y="0px"
	 viewBox="0 0 512 512" style="enable-background:new 0 0 512 512;" xml:space="preserve">
<path style="fill:#F29F26;" d="M301.154,356.238L174.231,510.356c-0.891,1.075-2.189,1.644-3.506,1.644
	c-0.789,0-1.587-0.207-2.31-0.632c-1.928-1.136-2.746-3.501-1.93-5.582l59.108-156.003h-60.628c-1.593,0-3.072-0.835-3.896-2.198
	c-0.826-1.366-0.881-3.063-0.138-4.476l64.975-123.879h-96.356c-1.588,0-3.063-0.828-3.891-2.183
	c-0.826-1.355-0.89-3.044-0.163-4.457L233.46,2.475c0.78-1.52,2.345-2.475,4.053-2.475h68.932h30.13h33.991
	c1.632,0,3.14,0.872,3.952,2.287c0.814,1.415,0.809,3.156-0.015,4.567l-63.936,109.627h71.882c1.664,0,3.197,0.908,3.996,2.366
	c0.799,1.461,0.741,3.241-0.155,4.643l-92.125,144.271h70.201c1.766,0,3.374,1.024,4.125,2.623c0.75,1.601,0.509,3.488-0.622,4.849
	l-48.709,59.144"/>
<path style="fill:#ffeb3b;" d="M160.933,343.109c-0.742,1.413-0.688,3.11,0.138,4.476c0.824,1.363,2.304,2.198,3.896,2.198h60.628
	l-59.108,156.003c-0.816,2.082,0.002,4.446,1.93,5.582c0.128,0.076,0.261,0.136,0.395,0.199l132.69-201.1H233.06
	c-1.593,0-3.072-0.835-3.896-2.198c-0.826-1.366-0.881-3.063-0.138-4.476l64.975-123.88h-79.612c-1.588,0-3.063-0.828-3.891-2.183
	c-0.826-1.355-0.89-3.044-0.163-4.457L299.366,0h-61.852c-1.707,0-3.273,0.954-4.053,2.475L125.497,212.587
	c-0.726,1.414-0.663,3.102,0.163,4.457c0.828,1.355,2.303,2.183,3.891,2.183h96.356L160.933,343.109z"/>
<g>
</g>
<g>
</g>
<g>
</g>
<g>
</g>
<g>
</g>
<g>
</g>
<g>
</g>
<g>
</g>
<g>
</g>
<g>
</g>
<g>
</g>
<g>
</g>
<g>
</g>
<g>
</g>
<g>
</g>
</svg>
