<svg height="512pt" viewBox="0 0 512.001 512" width="512pt" xmlns="http://www.w3.org/2000/svg"><path d="m379.261719 315.589844 101.929687-101.929688-63.671875-63.671875-43.027343 43.027344-166.1875-104.992187 24.351562-24.351563-63.671875-63.671875-168.984375 168.984375 63.671875 63.671875 24.351563-24.351562 104.992187 166.1875-43.027344 43.027343 63.671875 63.671875 101.929688-101.929687 132.742187 132.738281h63.667969v-63.671875zm-336.835938-146.605469 126.558594-126.558594 21.246094 21.246094-126.558594 126.558594zm67.34375 17.574219 76.789063-76.789063 166.1875 104.992188-137.984375 137.984375zm82.640625 230.960937 225.109375-225.105469 21.246094 21.246094-225.109375 225.105469zm289.589844 64.480469h-21.246094l-123.953125-123.953125 21.246094-21.246094 123.953125 123.953125zm0 0"/></svg>