<svg height="511pt" viewBox="-5 1 511 511.999" width="511pt" xmlns="http://www.w3.org/2000/svg"><path d="m111.171875 34.996094c0 72.714844 125.542969 136.441406 36.457031 269.675781-89.085937 133.234375 125.105469 186.328125 125.105469 186.328125s-119.757813-94.699219 30.085937-176.328125c199.773438-108.828125 155.589844-279.675781 155.589844-279.675781zm0 0" fill="#007a5a"/><path d="m302.820312 314.667969c-149.84375 81.632812-30.082031 176.335937-30.082031 176.335937s-46.113281-11.433594-86.648437-36.992187c-20.789063-35.066407-29.527344-89.625 61.726562-139.34375 199.785156-108.828125 155.597656-279.671875 155.597656-279.671875h54.992188s44.183594 170.84375-155.585938 279.671875zm0 0" fill="#215e48"/><path d="m458.410156 34.996094c0-19.328125-77.730468-34.996094-173.617187-34.996094s-173.621094 15.667969-173.621094 34.996094 77.734375 34.996094 173.621094 34.996094 173.617187-15.667969 173.617187-34.996094zm0 0" fill="#00df97"/><path d="m435.175781 52.496094c-30.019531 10.457031-86.121093 17.492187-150.386719 17.492187-64.261718 0-120.363281-7.035156-150.382812-17.492187 30.015625-10.464844 86.121094-17.5 150.382812-17.5 64.265626 0 120.367188 7.035156 150.386719 17.5zm0 0" fill="#215e48"/><path d="m313.933594 206.96875c-46.871094 0-91.011719-3.695312-124.292969-10.402344-16.566406-3.339844-29.6875-7.285156-39.003906-11.722656-11.976563-5.707031-18.046875-12.636719-18.046875-20.597656 0-14.007813 18.78125-21.179688 24.953125-23.535156 3.984375-1.519532 8.453125.476562 9.976562 4.460937 1.523438 3.988281-.476562 8.453125-4.464843 9.976563-12.71875 4.855468-14.753907 8.5625-14.992188 9.113281.800781 2.476562 10.9375 10.675781 47.386719 17.699219 31.980469 6.164062 74.058593 9.554687 118.484375 9.554687 24.074218 0 47.359375-.980469 69.207031-2.921875 4.25-.367188 8 2.765625 8.378906 7.015625.375 4.25-2.765625 8-7.015625 8.378906-22.296875 1.976563-46.042968 2.980469-70.570312 2.980469zm0 0" fill="#00df97"/><path d="m283.246094 298.761719c-37.351563 0-72.542969-2.945313-99.089844-8.296875-31.800781-6.410156-46.609375-15.066406-46.609375-27.242188 0-13.480468 18.546875-20.113281 32.5-23.929687 4.121094-1.125 8.367187 1.296875 9.492187 5.410156 1.125 4.117187-1.296874 8.367187-5.414062 9.492187-14.753906 4.039063-19.417969 7.65625-20.753906 9.050782 2.324218 2.484375 12.101562 8.121094 38.4375 12.953125 24.992187 4.582031 57.46875 7.109375 91.4375 7.109375s66.441406-2.523438 91.433594-7.109375c26.335937-4.832031 36.113281-10.46875 38.4375-12.953125-.8125-.847656-2.871094-2.519532-7.730469-4.632813l-12.585938-4.617187c-4.007812-1.46875-6.0625-5.90625-4.59375-9.914063 1.472657-4.007812 5.914063-6.058593 9.914063-4.59375l12.792968 4.695313c.128907.046875.261719.097656.390626.15625 4.363281 1.875 17.636718 7.589844 17.636718 18.882812 0 12.171875-14.808594 20.828125-46.609375 27.238282-26.546875 5.355468-61.738281 8.300781-99.085937 8.300781zm0 0" fill="#00df97"/><path d="m18.679688 476.5625h21.644531c2.304687-10.101562 11.589843-17.660156 22.695312-17.660156 2.027344 0 3.996094.253906 5.871094.726562 5.582031-14.550781 20.023437-24.914062 36.964844-24.914062 18.59375 0 34.171875 12.488281 38.335937 29.285156 2.363282-1.429688 5.144532-2.269531 8.132813-2.269531 8.472656 0 15.34375 6.628906 15.421875 14.832031h59.707031c3.742187-7.601562 11.738281-12.855469 21-12.855469 5.90625 0 11.292969 2.140625 15.394531 5.660157 1.84375-15.308594 15.246094-27.1875 31.515625-27.1875 14.511719 0 26.738281 9.449218 30.523438 22.347656 5.511719-10.433594 16.640625-17.613282 29.519531-17.765625 7.074219-18.3125 25.277344-31.347657 46.625-31.347657 26.464844 0 48.105469 20.039063 49.683594 45.332032 14.167968.472656 25.503906 11.753906 25.503906 25.613281 0 14.160156-11.832031 25.640625-26.425781 25.640625-7.992188 0-432.113281-.164062-432.113281-.164062-10.042969 0-18.179688-7.894532-18.179688-17.636719 0-9.738281 8.140625-17.636719 18.179688-17.636719zm0 0" fill="#c4e1e8"/><path d="m.5 494.195312c0 9.746094 8.144531 17.644532 18.183594 17.644532 0 0 5.429687 0 15.082031.007812-.011719-.089844-.011719-.183594-.011719-.277344 0-4.875 2.035156-9.277343 5.324219-12.46875 3.289063-3.191406 7.835937-5.164062 12.851563-5.164062h21.640624c2.3125-10.105469 11.597657-17.664062 22.703126-17.664062 2.023437 0 3.992187.253906 5.871093.726562 5.554688-14.488281 19.882813-24.816406 36.738281-24.910156-7.03125-10.457032-19.195312-17.371094-33.027343-17.371094-16.9375 0-31.382813 10.363281-36.964844 24.910156-1.871094-.476562-3.839844-.726562-5.871094-.726562-11.109375 0-20.390625 7.554687-22.695312 17.660156h-21.640625c-5.015625 0-9.5625 1.972656-12.859375 5.164062-3.292969 3.195313-5.324219 7.601563-5.324219 12.46875zm0 0" fill="#a4d5dd"/><path d="m375.996094 477.179688h-.097656c-4.269532 0-7.726563-3.457032-7.726563-7.726563 0-4.265625 3.457031-7.726563 7.726563-7.726563 4.265624 0 7.773437 3.460938 7.773437 7.726563 0 4.269531-3.410156 7.726563-7.675781 7.726563zm0 0" fill="#a4d5dd"/><path d="m391.292969 463.53125h-.097657c-4.269531 0-7.726562-3.457031-7.726562-7.726562 0-4.265626 3.457031-7.726563 7.726562-7.726563 4.265626 0 7.773438 3.460937 7.773438 7.726563 0 4.269531-3.40625 7.726562-7.675781 7.726562zm0 0" fill="#a4d5dd"/><path d="m361.808594 155.65625c-4.265625 0-7.722656-3.460938-7.722656-7.726562 0-4.269532 3.457031-7.726563 7.722656-7.726563 33.097656 0 64.542968-2.804687 88.546875-7.894531 26.410156-5.601563 34.535156-12.082032 35.535156-14.199219-.527344-.941406-4.347656-6.195313-25.324219-11.8125-4.121094-1.101563-6.570312-5.339844-5.46875-9.460937 1.105469-4.121094 5.34375-6.566407 9.464844-5.464844 24.789062 6.636718 36.839844 15.375 36.839844 26.714844 0 12.472656-14.605469 21.839843-44.644532 28.636718-25.449218 5.761719-59.167968 8.933594-94.949218 8.933594zm124.15625-37.402344h.011718zm0 0" fill="#00df97"/><path d="m194.667969 405.699219c-25.230469 0-49.039063-2.4375-67.039063-6.863281-22.128906-5.4375-32.886718-13.136719-32.886718-23.527344 0-13.941406 20.101562-19.902344 26.707031-21.863282 4.089843-1.214843 8.390625 1.121094 9.601562 5.210938 1.214844 4.089844-1.117187 8.390625-5.207031 9.605469-9.59375 2.84375-13.832031 5.640625-15.25 7.054687 1.867188 1.898438 8.414062 5.878906 24.515625 9.394532 16.347656 3.566406 37.5 5.535156 59.558594 5.535156 22.058593 0 43.210937-1.96875 59.558593-5.535156 16.113282-3.519532 22.65625-7.503907 24.519532-9.398438-2.070313-2.078125-9.914063-6.714844-29.335938-10.386719-4.195312-.792969-6.949218-4.835937-6.15625-9.027343.792969-4.195313 4.832032-6.945313 9.027344-6.15625 28.472656 5.386718 42.316406 13.746093 42.316406 25.566406 0 10.390625-10.757812 18.089844-32.886718 23.527344-18.003907 4.425781-41.8125 6.863281-67.042969 6.863281zm84.597656-29.730469h.011719zm0 0" fill="#00df97"/><path d="m265.964844 341.566406c-16.5625 0-33.046875-1.148437-47.660156-3.324218-4.222657-.625-7.132813-4.554688-6.507813-8.777344.628906-4.222656 4.5625-7.136719 8.78125-6.503906 13.875 2.0625 29.570313 3.152343 45.386719 3.152343 26.078125 0 50.496094-2.847656 68.757812-8.023437 19.511719-5.53125 23.734375-11.480469 23.734375-12.65625 0-.90625-2.671875-5.277344-15.757812-10.082032-4.003907-1.472656-6.058594-5.910156-4.585938-9.917968 1.46875-4.003906 5.910157-6.058594 9.914063-4.589844 17.175781 6.3125 25.882812 14.585938 25.882812 24.589844 0 24.828125-55.953125 36.132812-107.945312 36.132812zm0 0" fill="#00df97"/><path d="m105.894531 333.414062c-2.316406 0-4.605469-1.039062-6.125-3.023437-.777343-1.011719-19.0625-25.285156-22.578125-64.480469-.378906-4.25 2.757813-8.003906 7.007813-8.382812 4.253906-.386719 8.003906 2.753906 8.386719 7.003906 3.09375 34.507812 19.300781 56.265625 19.464843 56.480469 2.570313 3.394531 1.914063 8.238281-1.472656 10.820312-1.402344 1.066407-3.050781 1.582031-4.683594 1.582031zm0 0" fill="#915040"/><path d="m84.933594 276.414062c-2.089844 0-4.171875-.839843-5.691406-2.496093-2.871094-3.136719-2.691407-7.984375.429687-10.875.484375-.449219 12.09375-11.042969 30.8125-14.304688 4.199219-.742187 8.207031 2.082031 8.9375 6.285157.730469 4.203124-2.082031 8.207031-6.285156 8.9375-14.039063 2.445312-22.90625 10.367187-22.996094 10.445312-1.480469 1.34375-3.347656 2.007812-5.207031 2.007812zm0 0" fill="#00df97"/><path d="m84.917969 276.441406c-1.007813 0-2.035157-.199218-3.023438-.621094-.070312-.03125-11.09375-4.484374-25.128906-2.039062-4.207031.734375-8.207031-2.082031-8.9375-6.285156-.734375-4.207032 2.082031-8.207032 6.285156-8.9375 18.71875-3.261719 33.226563 2.785156 33.835938 3.042968 3.925781 1.671876 5.753906 6.207032 4.082031 10.136719-1.25 2.9375-4.109375 4.703125-7.113281 4.703125zm0 0" fill="#00df97"/><path d="m84.261719 272.710938c-3.675781 0-6.933594-2.636719-7.597657-6.378907-.039062-.207031-2.238281-11.921875-9.585937-20.867187-2.710937-3.300782-2.230469-8.167969 1.066406-10.875 3.296875-2.707032 8.164063-2.230469 10.875 1.066406 10.023438 12.203125 12.753907 27.363281 12.863281 28.003906.734376 4.203125-2.082031 8.203125-6.285156 8.9375-.445312.078125-.894531.113282-1.335937.113282zm0 0" fill="#00df97"/><path d="m85.984375 268.574219c-1.394531 0-2.804687-.378907-4.074219-1.167969-3.625-2.257812-4.734375-7.019531-2.476562-10.644531l11.4375-18.375c2.257812-3.621094 7.019531-4.726563 10.644531-2.476563 3.621094 2.257813 4.730469 7.023438 2.476563 10.644532l-11.441407 18.375c-1.464843 2.351562-3.984375 3.644531-6.566406 3.644531zm0 0" fill="#00df97"/><path d="m297.835938 428.683594c-3.054688 0-5.949219-1.824219-7.164063-4.832032-1.597656-3.953124.308594-8.449218 4.253906-10.050781.371094-.15625 25.316407-10.664062 45.476563-38.738281 2.488281-3.464844 7.316406-4.257812 10.78125-1.765625 3.46875 2.488281 4.257812 7.316406 1.769531 10.78125-22.953125 31.960937-51.039063 43.566406-52.226563 44.042969-.945312.382812-1.925781.5625-2.890624.5625zm0 0" fill="#915040"/><path d="m344.871094 390.285156c-3.316406 0-6.378906-2.152344-7.390625-5.480468-.085938-.273438-3.71875-11.503907-14.484375-20.683594-3.25-2.765625-3.636719-7.644532-.871094-10.890625 2.769531-3.246094 7.644531-3.632813 10.890625-.867188 14.460937 12.324219 19.074219 27.351563 19.261719 27.984375 1.222656 4.089844-1.101563 8.394532-5.191406 9.613282-.738282.21875-1.484376.324218-2.214844.324218zm0 0" fill="#00df97"/><path d="m371.550781 403.085938c-1.773437 0-3.554687-.605469-5.007812-1.847657-10.84375-9.242187-22.601563-11.007812-22.71875-11.023437-4.207031-.601563-7.160157-4.492188-6.582031-8.703125.578124-4.210938 4.433593-7.167969 8.640624-6.613281.65625.085937 16.222657 2.257812 30.683594 14.582031 3.246094 2.765625 3.636719 7.644531.867188 10.890625-1.527344 1.792968-3.695313 2.714844-5.882813 2.714844zm0 0" fill="#00df97"/><path d="m347.328125 387.390625c-1.78125 0-3.566406-.609375-5.023437-1.855469-3.230469-2.773437-3.621094-7.628906-.859376-10.867187.421876-.496094 10.480469-12.160157 25.320313-17.574219 4.007813-1.460938 8.441406.601562 9.90625 4.613281 1.460937 4.007813-.601563 8.441407-4.613281 9.90625-10.917969 3.984375-18.789063 13.003907-18.867188 13.097657-1.527344 1.769531-3.691406 2.679687-5.863281 2.679687zm0 0" fill="#00df97"/><path d="m347.949219 382.96875c-4.183594 0-7.625-3.339844-7.722657-7.546875l-.507812-21.636719c-.101562-4.265625 3.277344-7.804687 7.542969-7.90625h.183593c4.183594 0 7.625 3.339844 7.722657 7.542969l.507812 21.640625c.101563 4.265625-3.277343 7.804688-7.542969 7.902344-.0625.003906-.125.003906-.183593.003906zm0 0" fill="#00df97"/><path d="m421.265625 303.183594h-.097656c-4.265625 0-7.726563-3.457032-7.726563-7.726563 0-4.265625 3.460938-7.726562 7.726563-7.726562s7.777343 3.460937 7.777343 7.726562c0 4.269531-3.410156 7.726563-7.679687 7.726563zm0 0" fill="#00df97"/><path d="m442.75 307.640625c-4.230469 0-7.679688-3.40625-7.722656-7.648437-.042969-4.265626 3.378906-7.761719 7.644531-7.804688h.082031c4.230469 0 7.730469 3.410156 7.773438 7.648438.042968 4.269531-3.332032 7.761718-7.597656 7.804687h-.097657c-.027343 0-.054687 0-.082031 0zm0 0" fill="#215e48"/><path d="m120.453125 192.953125h-.101563c-4.265624 0-7.726562-3.460937-7.726562-7.726563 0-4.265624 3.460938-7.726562 7.726562-7.726562 4.269532 0 7.777344 3.460938 7.777344 7.726562 0 4.265626-3.410156 7.726563-7.675781 7.726563zm0 0" fill="#215e48"/><path d="m120.402344 127.953125h-.101563c-4.265625 0-7.722656-3.457031-7.722656-7.722656 0-4.269531 3.457031-7.726563 7.722656-7.726563 4.269531 0 7.777344 3.457032 7.777344 7.726563 0 4.265625-3.410156 7.722656-7.675781 7.722656zm0 0" fill="#00df97"/><path d="m86.042969 150.398438h-.101563c-4.265625 0-7.726562-3.457032-7.726562-7.726563 0-4.265625 3.460937-7.726563 7.726562-7.726563 4.269532 0 7.777344 3.460938 7.777344 7.726563 0 4.269531-3.410156 7.726563-7.675781 7.726563zm0 0" fill="#00df97"/><g fill="#215e48"><path d="m84.222656 399.652344c-4.230468 0-7.683594-3.410156-7.722656-7.648438-.042969-4.269531 3.378906-7.761718 7.644531-7.804687h.082031c4.230469 0 7.730469 3.40625 7.773438 7.648437.042969 4.265625-3.332031 7.757813-7.597656 7.800782l-.101563.003906c-.023437 0-.050781 0-.078125 0zm0 0"/><path d="m352.324219 131.109375c-4.230469 0-7.683594-3.410156-7.726563-7.648437-.042968-4.269532 3.382813-7.761719 7.648438-7.804688h.082031c4.230469 0 7.730469 3.40625 7.773437 7.648438.042969 4.265624-3.332031 7.757812-7.597656 7.800781l-.101562.003906c-.027344 0-.054688 0-.078125 0zm0 0"/><path d="m213.558594 240.972656c-4.230469 0-7.683594-3.410156-7.726563-7.648437-.042969-4.269531 3.382813-7.761719 7.648438-7.804688h.078125c4.234375 0 7.734375 3.40625 7.777344 7.644531.042968 4.269532-3.332032 7.761719-7.597657 7.804688l-.101562.003906c-.027344 0-.054688 0-.078125 0zm0 0"/><path d="m230.734375 259.417969h-.101563c-4.265624 0-7.726562-3.460938-7.726562-7.726563s3.460938-7.726562 7.726562-7.726562c4.269532 0 7.777344 3.460937 7.777344 7.726562s-3.410156 7.726563-7.675781 7.726563zm0 0"/><path d="m209.097656 378.953125h-.097656c-4.265625 0-7.726562-3.457031-7.726562-7.726563 0-4.265624 3.460937-7.722656 7.726562-7.722656s7.777344 3.457032 7.777344 7.722656c0 4.269532-3.410156 7.726563-7.679688 7.726563zm0 0"/></g><path d="m274.308594 145.800781c-4.976563 6.589844-12.875 10.855469-21.785156 10.855469-8.914063 0-16.816407-4.265625-21.789063-10.855469 4.976563-6.59375 12.875-10.859375 21.789063-10.859375 8.910156 0 16.8125 4.265625 21.785156 10.859375zm0 0" fill="#00df97"/><path d="m286.753906 263.195312c1.53125 10.941407-1.910156 22.449219-10.335937 30.878907-8.429688 8.429687-19.941407 11.871093-30.882813 10.339843-1.53125-10.941406 1.910156-22.449218 10.339844-30.882812 8.425781-8.425781 19.9375-11.867188 30.878906-10.335938zm0 0" fill="#00df97"/><path d="m447.890625 226.769531c-9.625 1.347657-19.75-1.679687-27.164063-9.09375-7.414062-7.414062-10.441406-17.539062-9.09375-27.164062 9.625-1.347657 19.75 1.679687 27.164063 9.09375 7.414063 7.414062 10.441406 17.539062 9.09375 27.164062zm0 0" fill="#00df97"/><path d="m29.46875 373.789062c9.628906 1.34375 19.75-1.679687 27.167969-9.097656 7.414062-7.414062 10.441406-17.539062 9.09375-27.164062-9.628907-1.34375-19.75 1.679687-27.164063 9.09375-7.414062 7.417968-10.441406 17.539062-9.097656 27.167968zm0 0" fill="#00df97"/><path d="m176.539062 80.878906c9.625 1.347656 19.75-1.679687 27.164063-9.09375 7.414063-7.414062 10.441406-17.539062 9.09375-27.164062-9.625-1.347656-19.75 1.679687-27.164063 9.09375-7.414062 7.414062-10.441406 17.539062-9.09375 27.164062zm0 0" fill="#00df97"/></svg>